<svg xmlns="http://www.w3.org/2000/svg" width="93.335" height="43.299" viewBox="0 0 93.335 43.299">
  <g id="logo" transform="translate(-940.78 -512.319)">
    <g id="Group_7" data-name="Group 7" transform="translate(940.78 512.319)">
      <path id="Path_1" data-name="Path 1" d="M724.176,307.949c0-1.738.026-3.192-.011-4.644-.019-.73.272-.989.981-.982,2.4.021,4.809.031,7.212-.006.842-.013,1.13.306,1.118,1.133-.035,2.36-.01,4.721-.01,7.082,0,10.216-.023,20.431.029,30.646.006,1.3-.325,1.718-1.65,1.649-2.184-.114-4.378-.061-6.567-.017-.829.016-1.152-.245-1.117-1.1.055-1.355.015-2.714.015-4.265-5.365,5.113-11.553,7.369-18.682,6.318a19.819,19.819,0,0,1-12.545-7.479,21.762,21.762,0,0,1,1.422-29.151C701.759,299.524,716.344,298.51,724.176,307.949Zm-26.793,14.671a13.541,13.541,0,0,0,13.754,13.668,13.829,13.829,0,0,0,13.714-13.7,13.989,13.989,0,0,0-13.8-13.787A13.671,13.671,0,0,0,697.383,322.621Z" transform="translate(-640.16 -300.78)" fill="#fff"/>
      <path id="Path_2" data-name="Path 2" d="M544.014,328.514A20.886,20.886,0,0,1,520.3,342.7a21.646,21.646,0,0,1,6.977-42.725c11.731,1.828,19.776,12.4,17.977,23.89H511.13c.279,4.951,5.488,10.477,10.251,11.1a13.187,13.187,0,0,0,13.386-5.8,1.407,1.407,0,0,1,.864-.629C538.413,328.495,541.2,328.514,544.014,328.514Zm-32.407-11.945h24.846c-1.364-5.191-6.2-8.717-12.2-8.97A13.31,13.31,0,0,0,511.607,316.568Z" transform="translate(-502.258 -299.719)" fill="#fff"/>
    </g>
  </g>
</svg>
